<svg width="763" height="295" viewBox="0 0 763 295" fill="none" xmlns="http://www.w3.org/2000/svg">
<path d="M56.5 0H0V295H1H284.5L250.5 246V151.5C259.3 83.1 315.167 66.3333 342 66.5C356 64.5 431 76.5 435 154.5C434 233.5 360 246 342 246C327.6 246 311 240 304.5 237H302.5V295H762.5V238H711V241H659.5V148.5C659.5 140 656.672 117.5 630.5 117.5C606 117.5 604 138 604 148.5V241H551V148.5C551 148 552 117.5 523 117.5C498 117.5 496.5 148.5 496.5 148.5V241H445.5V143C445.5 91.5 487 67 523 67C551.8 67 572 83.3333 578.5 91.5C597 75 606.5 67.9531 637 67C688.2 65.4 711 91.5 711 146.5V236.5H762.5V137.5C754.5 41.1 666.167 5.66667 623 0H108.5V77C109.5 73.5 120 66.5 154 66.5C248 66.5 242 152.5 242 157.5C242 166 235 246.5 150 246.5C82 246.5 56.5 191 56.5 162.5V0Z" fill="#0070DC"/>
<path d="M762.5 239V233.5V231.5H711V239H762.5Z" fill="#0070DC"/>
<circle cx="342.5" cy="155.5" r="42.5" fill="#0070DC"/>
<circle cx="148.5" cy="155.5" r="42.5" fill="#0070DC"/>
</svg>
